/* XPM */
static char *f86012ca9e39423ade621d0a762ca2d4Lz8GiMKgGsCBJV29[] = {
/* columns rows colors chars-per-pixel */
"64 64 203 2 ",
"   c None",
".  c #00AAEE",
"X  c #00ABEE",
"o  c #00ACEE",
"O  c #00ACEF",
"+  c #00ADEF",
"@  c #00AEEF",
"#  c #00AFEF",
"$  c #00B0EF",
"%  c #00B1EF",
"&  c #00B0F0",
"*  c #00B1F0",
"=  c #01B1F0",
"-  c #00B2F0",
";  c #01B2F0",
":  c #00B3F0",
">  c #02B2F0",
",  c #03B2F0",
"<  c #04B1F0",
"1  c #04B2F0",
"2  c #04B3F0",
"3  c #05B3F0",
"4  c #07B2F0",
"5  c #06B3F0",
"6  c #07B3F0",
"7  c #05B4F0",
"8  c #09B2F0",
"9  c #09B4F0",
"0  c #0CB5F0",
"q  c #0DB5F0",
"w  c #0EB6F0",
"e  c #0EB6F1",
"r  c #0FB6F1",
"t  c #0FB7F1",
"y  c #10B5F1",
"u  c #10B7F1",
"i  c #11B7F1",
"p  c #14B7F1",
"a  c #19B7F1",
"s  c #11B8F1",
"d  c #14B8F1",
"f  c #15B8F1",
"g  c #16B9F1",
"h  c #19B8F1",
"j  c #19B9F1",
"k  c #1BB9F1",
"l  c #1BBAF1",
"z  c #1DBAF1",
"x  c #1EBAF1",
"c  c #1DBBF2",
"v  c #1FBAF2",
"b  c #21BBF1",
"n  c #20BBF2",
"m  c #26BBF2",
"M  c #24BCF1",
"N  c #24BCF2",
"B  c #26BDF2",
"V  c #29BDF2",
"C  c #2ABDF2",
"Z  c #2ABEF2",
"A  c #2BBEF2",
"S  c #2ABFF2",
"D  c #2FBFF2",
"F  c #31BFF3",
"G  c #35BFF2",
"H  c #32C0F3",
"J  c #32C1F3",
"K  c #34C1F3",
"L  c #36C2F3",
"P  c #38C2F3",
"I  c #39C2F3",
"U  c #3DC3F3",
"Y  c #41C4F3",
"T  c #41C5F3",
"R  c #42C4F3",
"E  c #42C5F4",
"W  c #45C6F4",
"Q  c #47C6F4",
"!  c #47C7F4",
"~  c #49C7F4",
"^  c #4DC8F4",
"/  c #4DC9F4",
"(  c #4FC9F4",
")  c #4FCAF4",
"_  c #53C9F5",
"`  c #51CAF5",
"'  c #56C9F4",
"]  c #59CBF5",
"[  c #5ACCF5",
"{  c #5DCDF5",
"}  c #5ECDF5",
"|  c #60CEF5",
" . c #61CEF5",
".. c #63CFF5",
"X. c #61CFF6",
"o. c #63CFF6",
"O. c #68CFF5",
"+. c #67D0F6",
"@. c #68D1F5",
"#. c #69D0F6",
"$. c #68D1F6",
"%. c #6DD2F6",
"&. c #6ED2F6",
"*. c #71D4F7",
"=. c #72D4F7",
"-. c #73D4F7",
";. c #74D5F7",
":. c #77D4F7",
">. c #78D5F7",
",. c #7AD5F7",
"<. c #78D6F7",
"1. c #7DD7F7",
"2. c #7FD7F7",
"3. c #82D8F7",
"4. c #83D9F8",
"5. c #85D9F8",
"6. c #87D9F8",
"7. c #86DAF8",
"8. c #88DAF8",
"9. c #89DAF8",
"0. c #89DBF8",
"q. c #8ADBF8",
"w. c #8DDCF8",
"e. c #8FDDF8",
"r. c #94DDF8",
"t. c #95DFF9",
"y. c #96DFF8",
"u. c #96DEF9",
"i. c #97DEF9",
"p. c #9FE0F9",
"a. c #9EE1F9",
"s. c #9FE2F9",
"d. c #A0E1F9",
"f. c #A3E3FA",
"g. c #A6E3FA",
"h. c #AAE4FA",
"j. c #ABE5FA",
"k. c #ADE6FA",
"l. c #AFE6FA",
"z. c #AFE7FA",
"x. c #B0E6FA",
"c. c #B2E7FA",
"v. c #B3E7FA",
"b. c #B5E8FB",
"n. c #B5E9FB",
"m. c #B7E9FB",
"M. c #B9EAFA",
"N. c #BAEAFB",
"B. c #BBEAFB",
"V. c #BCEBFB",
"C. c #BEEBFB",
"Z. c #BFEBFB",
"A. c #C0EBFB",
"S. c #C1ECFB",
"D. c #C6EDFC",
"F. c #C7EEFC",
"G. c #CBEFFB",
"H. c #C9EFFC",
"J. c #CBEFFC",
"K. c #CCEFFC",
"L. c #CFF0FC",
"P. c #D1F1FC",
"I. c #D2F0FC",
"U. c #D3F1FC",
"Y. c #D5F2FC",
"T. c #D4F2FD",
"R. c #D6F2FC",
"E. c #D7F2FC",
"W. c #D6F2FD",
"Q. c #D7F3FD",
"!. c #D8F3FD",
"~. c #DBF4FD",
"^. c #DDF4FD",
"/. c #E0F6FD",
"(. c #E1F6FD",
"). c #E4F6FD",
"_. c #E4F7FD",
"`. c #E6F7FD",
"'. c #E4F6FE",
"]. c #E7F7FE",
"[. c #E8F8FE",
"{. c #E9F8FE",
"}. c #EAF8FE",
"|. c #EBF9FE",
" X c #ECF9FE",
".X c #EDF9FE",
"XX c #EEF9FE",
"oX c #EDFAFE",
"OX c #EEFAFE",
"+X c #EFFAFE",
"@X c #F1FBFE",
"#X c #F2FBFE",
"$X c #F3FBFE",
"%X c #F5FCFE",
"&X c #F6FCFE",
"*X c #F7FDFF",
"=X c #FAFDFF",
"-X c #FAFEFF",
";X c #FCFEFF",
":X c #FDFEFF",
">X c #FEFEFF",
",X c #FEFFFF",
"<X c white",
/* pixels */
"                                                                                                                                ",
"                                                                                                                                ",
"                                                                                                                                ",
"                                                          : : : : : :                                                           ",
"                                                  : : : : : : : : : : : : : :                                                   ",
"                                            : : : : : : : : : : : : : : : : : : : :                                             ",
"                                        : : : : : : : : : : : : : : : : : : : : : : : :                                         ",
"                                    : : : : : : : : : : : : : : : : : : : : : : : : : : : :                                     ",
"                                : : : : : : : : : : : : : : : : : : : : : : : : : : : : : : : :                                 ",
"                              : : : : : : : : : : : : : : : : : : : : : : : : : : : : : : : : : :                               ",
"                            : : : : : : : : : : : : : : : : : : : : : : : : : : : : : : : : : : : : :                           ",
"                          : : : : : : : : : : : : : : : : : : : : : : : : : : : : : : : : : : : : : : :                         ",
"                        : : : : : : : : : : : : : : : : : : : # : : : : : : : : : : : : : : : : : : : : :                       ",
"                      : : : : : : : : : : : : : : : : : : : y Q a : : : : : : : : : : : : : : : : : : : : :                     ",
"                    : : : : : : : : : : : : : : : : : : : # ~ <X.Xv.q : 1 : # : : : : : : : : : : : : : : :                     ",
"                  : : : : : : : : : : : : : : : : : : : : # 5.<X<XK.1 # 5.D.5.P & : : : : : : : : : : : : : :                   ",
"                : : : : : : : : : : : : : : : $ # # & : : # V.<X<X9.# $ J.<X<Xq.# : : : : : : : : : : : : : : :                 ",
"                : : : : : : : : : : : : : : $ q.u._ v & . q .X<X<X^ # v #X<X<XQ # : : : : : : : : : : : : : : :                 ",
"              : : : : : : : : : : : : : : : q {.<X<X#XD.q.3.<X<X.X0 . ` <X<X.Xy : : : : : : : : : : : : : : : : :               ",
"              : : : : : : : : : : : : : : $ T <X<X<X<X<X<X<X<X<X.X-.G u.<X<XM.: : : : : : : : : : : : : : : : : : :             ",
"            : : : : : : : : : : : : : : : $ P v.'.<X<X<X<X<X<X<X<X<X<X<X<X<Xq.. # : : : : : : : : : : : : : : : : :             ",
"            : : : : : : : : : : : : : : : : : # q O.$X<X<X<X<X<X<X<X<X<X<X<X.Xz.Q # # : : : : : : : : : : : : : : :             ",
"          : : : : : : : : : : : : : : : : : : : : & V.<X<X<X<X<X<X<X<X<X<X<X<X<X<Xv.m # : : : : : : : : : : : : : : :           ",
"          : : : : : : : : : : : : : : : : : : : : : E.<X<X<X<X!.U %.z.}.<X<X<X<X<X<X].P # : : : : : : : : : : : : : :           ",
"          : : : : : : : : : : : : : : : : : : : & A =X<X<X<X<Xs.. # # k ,.#X<X<X<X<X<X/.p $ : : : : : : : : : : : : : :         ",
"        : : : : : : : : : : : : : : : : : : : : #  .<X<X<X<X<X} # : : & # L }.<X<X<X<X<X;.# : : : : : : : : : : : : : :         ",
"        : : : : : : : : : : : : : : : : : : : : # s.<X<X<X<X*XH & : : : : . 5.<X<X<X<X<Xz.# : : : : : : : : : : : : : :         ",
"        : : : : : : : : : : : : : : : : : : : : 1 E.<X<X<X<XT.1 : : : : : # #.<X<X<X<X<Xn.$ : : : : : : : : : : : : : :         ",
"        : : : : : : : : : : : : : : : : : : : & A =X<X<X<X<Xr.. # : : : : & j.<X<X<X<X<Xu.# : : : : : : : : : : : : : :         ",
"      : : : : : : : : : : : : : : : : : : : : #  .<X<X<X<X<XD.O.F y 1 1 a 2.<X<X<X<X<X<X` # : : : : : : : : : : : : : : :       ",
"      : : : : : : : : : : : : : : : : : : : : # s.<X<X<X<X<X<X<X<X].I.I.}.<X<X<X<X<X<XH.% % : : : : : : : : : : : : : : :       ",
"      : : : : : : : : : : : : : : : : : : : : 1 E.<X<X<X<X<X<X<X<X<X<X<X<X<X<X<X<X<XK.m : 7 : : : : : : : : : : : : : : :       ",
"      : : : : : : : : : : : : : : : : : : : : A =X<X<X<X<XD.s.!.<X<X<X<X<X<X<X<X#X%.$ # $ : : : : : : : : : : : : : : : :       ",
"      : : : : : : : : : : : : : : : : : : : #  .<X<X<X<X<X} . 7 D :.K.<X<X<X<X<X<XV.A # : : : : : : : : : : : : : : : : :       ",
"      : : : : : : : : : : : : : : : : : : : # s.<X<X<X<X=XA $ : # $ 1 ] ].<X<X<X<X<X].n : : : : : : : : : : : : : : : : :       ",
"        : : : : : : : : : : : : : : : : : : 1 E.<X<X<X<XE.1 : : $ : : # V ].<X<X<X<X<Xf.# : : : : : : : : : : : : : : :         ",
"        : : : : : : : : : : : : : : : & # . N =X<X<X<X<Xd.# $ : : : : : . 1.<X<X<X<X<X}.q : : : : : : : : : : : : : : :         ",
"        : : : : : : : : : : : : : # V V.9.' j.<X<X<X<X<X .# % : : : : : & } <X<X<X<X<X$Xn & : : : : : : : : : : : : : :         ",
"        : : : : : : : : : : : : : # q.<X<X<X<X<X<X<X<X*Xv # $ $ : : : : # i.<X<X<X<X<X}.y : : : : : : : : : : : : : : :         ",
"          : : : : : : : : : : : & a }.<X<X<X<X<X<X<X<X*Xq.~ c $ # # # 8 O.=X<X<X<X<X<XS.: : : : : : : : : : : : : : : :         ",
"          : : : : : : : : : : : # R ^.<X<X<X<X<X<X<X<X<X<X<X.XL.v.s.h.E.<X<X<X<X<X<X<X-.# : : : : : : : : : : : : : :           ",
"          : : : : : : : : : : : : : 8 F O.f.!.=X<X<X<X<X<X<X<X<X<X<X<X<X<X<X<X<X<X<X{.p : : : : : : : : : : : : : : :           ",
"            : : : : : : : : : : : : : # # # 8 #.<X<X<X<X<X<X<X<X<X<X<X<X<X<X<X<X<X<X[ # : : : : : : : : : : : : : : :           ",
"            : : : : : : : : : : : : : : : : # ,.<X<XH.R 1.^.<X<X<X<X<X<X<X<X<X<X.X .# : : : : : : : : : : : : : : :             ",
"              : : : : : : : : : : : : : : : # M.<X<Xw.. # V.<X<Xv.u.V.I.R.I.v.,.n # : : : : : : : : : : : : : : : :             ",
"              : : : : : : : : : : : : : : : p .X<X<X` # v #X<X<XE . & : 1 : # # : : : : : : : : : : : : : : : : :               ",
"                : : : : : : : : : : : : : # ^ <X<X*Xv # ^ <X<X.Xg & : : : & : : : : : : : : : : : : : : : : : : :               ",
"                : : : : : : : : : : : : : # P j./.D.$ # w.<X<XV.: : : : : : : : : : : : : : : : : : : : : : : :                 ",
"                  : : : : : : : : : : : : : : # y v : & z.<X<Xq.# : : : : : : : : : : : : : : : : : : : : : :                   ",
"                    : : : : : : : : : : : : : : : : : : q L -.F $ : : : : : : : : : : : : : : : : : : : : : :                   ",
"                    : : : : : : : : : : : : : : : : : : : # # & : : : : : : : : : : : : : : : : : : : : : :                     ",
"                      : : : : : : : : : : : : : : : : : : : : : : : : : : : : : : : : : : : : : : : : : :                       ",
"                        : : : : : : : : : : : : : : : : : : : : : : : : : : : : : : : : : : : : : : : :                         ",
"                          : : : : : : : : : : : : : : : : : : : : : : : : : : : : : : : : : : : : : :                           ",
"                              : : : : : : : : : : : : : : : : : : : : : : : : : : : : : : : : : : :                             ",
"                                : : : : : : : : : : : : : : : : : : : : : : : : : : : : : : : :                                 ",
"                                  : : : : : : : : : : : : : : : : : : : : : : : : : : : : : :                                   ",
"                                      : : : : : : : : : : : : : : : : : : : : : : : : : :                                       ",
"                                          : : : : : : : : : : : : : : : : : : : : : :                                           ",
"                                                : : : : : : : : : : : : : : : :                                                 ",
"                                                          : : : : : :                                                           ",
"                                                                                                                                ",
"                                                                                                                                ",
"                                                                                                                                "
};
