/* XPM */
static char *_7f37b181b0043ba8fd003806d9cd32993fozrb3wtts8cwY[] = {
/* columns rows colors chars-per-pixel */
"16 16 68 1 ",
"  c None",
". c #00ABEF",
"X c #00ACEF",
"o c #00ADEF",
"O c #00AEEF",
"+ c #00AFEF",
"@ c #00B0EF",
"# c #00B1EF",
"$ c #00B0F0",
"% c #01B0F0",
"& c #00B1F0",
"* c #02B0F0",
"= c #00B2F0",
"- c #00B3F0",
"; c #00B3F1",
": c #03B3F0",
"> c #04B3F0",
", c #06B3F0",
"< c #07B5F0",
"1 c #0EB6F1",
"2 c #17B5F0",
"3 c #13B8F1",
"4 c #1CB9F1",
"5 c #21BBF2",
"6 c #2BBCF2",
"7 c #2EBEF2",
"8 c #30BDF2",
"9 c #33C1F2",
"0 c #33C0F3",
"q c #37C0F3",
"w c #38C0F3",
"e c #3DC3F3",
"r c #40C3F3",
"t c #43C6F3",
"y c #49C7F4",
"u c #56C9F4",
"i c #5CCCF5",
"p c #75D2F6",
"a c #75D3F6",
"s c #80D7F7",
"d c #87D9F8",
"f c #87DAF8",
"g c #8BDAF8",
"h c #96DEF8",
"j c #98DFF8",
"k c #9EE1F9",
"l c #A1E2F9",
"z c #A2E2F9",
"x c #A3E3F9",
"c c #B0E6FA",
"v c #B3E7FA",
"b c #B6E7FB",
"n c #B4E8FA",
"m c #BEEBFB",
"M c #CAEDFB",
"N c #CEEFFC",
"B c #D3F2FC",
"V c #D7F3FC",
"C c #D8F3FD",
"Z c #D9F3FD",
"A c #DBF4FD",
"S c #DEF4FD",
"D c #DFF5FD",
"F c #E9F8FE",
"G c #F0FAFE",
"H c #F9FDFF",
"J c #FDFEFF",
"K c white",
/* pixels */
"       --       ",
"     ------     ",
"    ----#---    ",
"   ---.0t5---   ",
"  ---0dnxxX---  ",
" ---#2cKBSuX--- ",
" ----XkNXgK7#-- ",
"-----,CSsmC4#---",
"----X6HaaGx-----",
" --oyMKqonK3o-- ",
" ---8hFCSHjo--- ",
"  --Xtdniq,---  ",
"   --<1e-o----  ",
"    ---o-----   ",
"     ------     ",
"       --       "
};
