/* XPM */
static char *f170ac927f4e4c1f96624746f2425fd0UNS4TNZOuV2gEsTY[] = {
/* columns rows colors chars-per-pixel */
"32 32 128 2 ",
"   c None",
".  c #00A9EE",
"X  c #00AAEE",
"o  c #00AAEF",
"O  c #00ACEE",
"+  c #00ACEF",
"@  c #00ADEF",
"#  c #00AEEF",
"$  c #00AFEF",
"%  c #00B0EF",
"&  c #00B1EF",
"*  c #07B1EF",
"=  c #00AFF0",
"-  c #00B0F0",
";  c #00B1F0",
":  c #02B0F0",
">  c #00B2F0",
",  c #00B3F0",
"<  c #01B3F0",
"1  c #00B3F1",
"2  c #03B3F0",
"3  c #04B2F0",
"4  c #05B2F0",
"5  c #05B3F0",
"6  c #06B3F0",
"7  c #08B1F0",
"8  c #0CB3F0",
"9  c #0AB4F0",
"0  c #0BB4F0",
"q  c #0BB4F1",
"w  c #0CB4F0",
"e  c #0EB4F0",
"r  c #0EB5F0",
"t  c #0EB5F1",
"y  c #0EB6F1",
"u  c #10B5F1",
"i  c #10B7F1",
"p  c #15B7F1",
"a  c #1AB6F0",
"s  c #1AB7F1",
"d  c #15B8F1",
"f  c #17B9F2",
"g  c #1AB9F1",
"h  c #1CB9F1",
"j  c #23B9F2",
"k  c #27BEF2",
"l  c #2BBDF2",
"z  c #2BBEF2",
"x  c #2FBDF2",
"c  c #2CBEF2",
"v  c #33BFF2",
"b  c #36C0F3",
"n  c #39C2F3",
"m  c #3DC2F3",
"M  c #3CC3F3",
"N  c #3FC3F3",
"B  c #47C2F3",
"V  c #41C5F3",
"C  c #46C5F4",
"Z  c #4BC7F4",
"A  c #4EC7F4",
"S  c #4DC8F4",
"D  c #51C9F4",
"F  c #50C9F5",
"G  c #54C9F4",
"H  c #5FCDF5",
"J  c #63CEF5",
"K  c #62CFF5",
"L  c #64CDF5",
"P  c #64CEF5",
"I  c #69D0F5",
"U  c #69D1F6",
"Y  c #6ED2F6",
"T  c #71D2F6",
"R  c #71D4F6",
"E  c #76D5F7",
"W  c #7CD5F7",
"Q  c #7ED7F7",
"!  c #7FD8F8",
"~  c #82D7F7",
"^  c #84D9F8",
"/  c #85D9F8",
"(  c #88DAF8",
")  c #8FDCF8",
"_  c #92DDF8",
"`  c #94DEF8",
"'  c #98DFF9",
"]  c #9BE0F8",
"[  c #9DE0F9",
"{  c #9FE2F9",
"}  c #A0E2F9",
"|  c #A8E3F9",
" . c #A9E4FA",
".. c #AFE6FA",
"X. c #B0E6FA",
"o. c #B5E8FA",
"O. c #B4E8FB",
"+. c #B8E9FA",
"@. c #B8E9FB",
"#. c #BEEAFB",
"$. c #BFEBFB",
"%. c #C2ECFB",
"&. c #C5EDFB",
"*. c #C9EEFB",
"=. c #C8EEFC",
"-. c #CBEFFC",
";. c #D3F1FC",
":. c #D5F2FC",
">. c #D9F4FD",
",. c #DAF4FD",
"<. c #DCF4FD",
"1. c #E1F5FD",
"2. c #E1F6FD",
"3. c #E3F6FD",
"4. c #E3F7FD",
"5. c #E5F7FE",
"6. c #ECF9FE",
"7. c #EEFAFE",
"8. c #EFFAFE",
"9. c #F2FBFF",
"0. c #F5FCFE",
"q. c #F6FCFE",
"w. c #F6FDFE",
"e. c #F9FDFF",
"r. c #FBFEFF",
"t. c #FCFEFF",
"y. c #FEFFFF",
"u. c white",
/* pixels */
"                                                                ",
"                            , , , ,                             ",
"                        , , , , , , , ,                         ",
"                  , , , , , , , , , , , < < <                   ",
"                , , , , , , , , , , < < < < < <                 ",
"              , , , , , , , , , , , < < < < < < < <             ",
"            , , , , , , , , < g p , + & < < < < < < <           ",
"          , , , , , , , + , + ..;.e F M , < < < < < <           ",
"        , , , , , , , k C e 0 8.X.4 w.o.= , , , < < < <         ",
"      , , , , , , , + ` u.1.$.u._ A u.U + , , , < < < < <       ",
"      , , , , , , , , N ' u.u.u.u.u.u.) a + , , < < < < <       ",
"      , , , , , , , , + , ,.u.8. .<.u.u.1.G + , < < < < < <     ",
"    , , , , , , , , < , z w.u.+.+ 8 Y q.u.q.z , , , , , < ,     ",
"    , , , , , , , , < + J u.u.E + , . O.u.u.J + , , , , < <     ",
"  , , , , , , , , , , + [ u.u.W a 9 v 1.u.u.V = , , , , , , ,   ",
"  , , , , , , , , , , 4 ;.u.u.u.r.1.q.u.q.} 4 , , , , , , , ,   ",
"  , , , , , , , < < , x r.u.&.P | 9.u.u.=.e , , , , , , , , ,   ",
"  , , , , , , , < + . H u.u.W . + j +.u.u.[ = , , , , , , , ,   ",
"    , , , , , , & n B X.u.r.N + , + b u.u.9.f , , , , , , ,     ",
"    , , , , , , i 5.u.u.u.w.S i 4 * ~ u.u.1.e < , , , , , ,     ",
"      , < < < , p ^ $.8.u.u.u.1.*.:.u.u.u.' + < , , , , , ,     ",
"      , < < < < , + + Z u.%.=.u.u.u.u.u.*.h & , , , , , ,       ",
"      , < < < < < < + E u.x I u.T P R F 0 = , , , , , , ,       ",
"        < < < < < < & ( ,.e $.w.4 + + & , , , , , , , ,         ",
"          , , , , , , 4 i 5 ! ^ , , , , , , , , , , ,           ",
"          , , , , , , , , < + , , , , , , , , , , , ,           ",
"            , , , , , , , , , , , , , , , , , , , ,             ",
"                , , , , , , , , , , , , , , , ,                 ",
"                  , , , , , , , , , , , , , ,                   ",
"                      , , , , , , , , , ,                       ",
"                            , , , ,                             ",
"                                                                "
};
