<svg width="2964" height="537" viewBox="0 0 2964 537" fill="none" xmlns="http://www.w3.org/2000/svg">
<path d="M514.164 332.129C479.304 471.976 337.687 557.046 197.84 522.186C58.066 487.326 -27.0281 345.701 7.84799 205.886C42.6915 66.0394 184.3 -19.0548 324.098 15.805C463.929 50.6648 549.015 192.306 514.155 332.129H514.164Z" fill="#00B3F0"/>
<path d="M376.078 231.816C381.274 197.087 354.831 178.417 318.675 165.962L330.403 118.917L301.767 111.78L290.348 157.586C282.72 155.712 275.075 153.912 267.413 152.186L278.913 106.079L250.284 98.9424L238.556 145.971C232.324 144.552 226.207 143.149 220.269 141.673L220.302 141.526L180.809 131.665L173.192 162.251C173.192 162.251 194.439 167.12 193.99 167.422C205.588 170.318 207.684 177.993 207.334 184.077L193.974 237.672C194.773 237.876 195.809 238.178 196.951 238.626L193.925 237.876L175.198 312.954C173.779 316.478 170.182 321.763 162.066 319.757C162.36 320.173 141.26 314.561 141.26 314.561L127.043 347.349L164.309 356.647C171.242 358.376 178.036 360.195 184.724 361.908L172.873 409.492L201.477 416.628L213.206 369.542C221.02 371.671 228.605 373.62 236.027 375.472L224.331 422.33L252.96 429.466L264.819 381.972C313.65 391.213 350.37 387.486 365.826 343.328C378.28 307.767 365.206 287.254 339.514 273.869C358.224 269.547 372.318 257.239 376.078 231.816ZM310.641 323.557C301.791 359.119 241.916 339.902 222.504 335.074L238.229 272.034C257.641 276.887 319.89 286.479 310.641 323.557ZM319.498 231.31C311.424 263.65 261.589 247.215 245.423 243.186L259.68 186.01C275.846 190.04 327.907 197.56 319.498 231.302V231.31Z" fill="white"/>
<path d="M762.248 162.46C784.002 162.46 802.809 166.311 818.671 174.015C834.533 181.719 847.676 192.142 858.099 205.284C868.523 218.425 876.227 233.833 881.212 251.506C886.197 269.18 888.69 288.213 888.69 308.605C888.69 339.873 882.798 369.556 871.015 397.652C859.685 425.295 844.05 449.539 824.109 470.385C804.169 490.777 780.603 507.091 753.411 519.327C726.219 531.109 696.761 537 665.038 537C660.959 537 653.708 536.773 643.284 536.32C633.314 536.32 621.757 535.414 608.615 533.601C595.472 531.789 581.423 529.07 566.467 525.444C551.965 521.819 538.143 516.834 525 510.49L642.604 16.3139L747.972 0L705.825 175.375C714.889 171.296 723.953 168.124 733.017 165.858C742.081 163.592 751.825 162.46 762.248 162.46ZM673.875 453.391C689.737 453.391 704.692 449.539 718.741 441.835C732.79 434.132 744.8 423.935 754.77 411.247C765.194 398.105 773.351 383.377 779.243 367.063C785.135 350.749 788.08 333.756 788.08 316.082C788.08 294.33 784.455 277.337 777.204 265.101C769.952 252.866 756.583 246.748 737.096 246.748C730.751 246.748 722.367 247.881 711.943 250.147C701.973 252.413 692.909 257.171 684.752 264.422L639.885 450.672C642.604 451.125 644.87 451.579 646.683 452.032C648.949 452.485 651.215 452.938 653.481 453.391C655.747 453.391 658.466 453.391 661.639 453.391C664.811 453.391 668.89 453.391 673.875 453.391Z" fill="#4D4D4D"/>
<path d="M1003.03 527.484H902.418L987.393 169.937H1088.68L1003.03 527.484ZM1051.97 126.433C1037.92 126.433 1025.23 122.354 1013.9 114.197C1002.57 105.587 996.91 92.6721 996.91 75.4519C996.91 65.9354 998.723 57.0987 1002.35 48.9417C1006.43 40.3316 1011.64 33.081 1017.98 27.1898C1024.33 20.8455 1031.58 15.8607 1039.74 12.2354C1048.35 8.61012 1057.41 6.79746 1066.93 6.79746C1080.98 6.79746 1093.67 11.1025 1105 19.7126C1116.33 27.8696 1121.99 40.5582 1121.99 57.7785C1121.99 67.2949 1119.95 76.3582 1115.87 84.9684C1112.25 93.1253 1107.26 100.376 1100.92 106.72C1094.57 112.611 1087.1 117.37 1078.49 120.995C1070.33 124.62 1061.49 126.433 1051.97 126.433Z" fill="#4D4D4D"/>
<path d="M1178.55 80.8899L1283.92 64.5759L1258.09 169.937H1370.93L1350.54 252.866H1238.37L1208.46 377.939C1205.74 388.362 1203.93 398.105 1203.03 407.168C1202.57 416.232 1203.71 424.162 1206.42 430.96C1209.6 437.304 1214.81 442.289 1222.06 445.914C1229.31 449.539 1239.28 451.352 1251.97 451.352C1262.85 451.352 1273.27 450.446 1283.24 448.633C1293.66 446.367 1304.09 443.422 1314.51 439.796L1321.99 517.287C1308.39 522.272 1293.66 526.577 1277.8 530.203C1261.94 533.828 1243.13 535.641 1221.38 535.641C1190.11 535.641 1165.86 531.109 1148.64 522.046C1131.42 512.529 1119.18 499.84 1111.93 483.98C1104.68 467.666 1101.51 449.086 1102.42 428.241C1103.32 407.395 1106.49 385.416 1111.93 362.305L1178.55 80.8899Z" fill="#4D4D4D"/>
<path d="M1360.99 384.737C1360.99 353.922 1365.97 324.919 1375.94 297.729C1385.91 270.539 1400.19 246.748 1418.77 226.356C1437.35 205.963 1459.78 189.876 1486.07 178.094C1512.81 166.311 1542.49 160.42 1575.12 160.42C1595.52 160.42 1613.64 162.46 1629.51 166.538C1645.82 170.163 1660.55 175.148 1673.69 181.492L1639.02 260.343C1629.96 256.718 1620.44 253.546 1610.47 250.827C1600.95 247.654 1589.17 246.068 1575.12 246.068C1541.13 246.068 1514.39 257.624 1494.91 280.735C1475.42 303.394 1465.68 334.435 1465.68 373.861C1465.68 396.972 1470.66 415.779 1480.63 430.28C1490.6 444.328 1508.96 451.352 1535.69 451.352C1548.84 451.352 1561.53 449.992 1573.76 447.273C1586 444.554 1596.88 441.156 1606.39 437.077L1613.87 517.967C1601.18 522.952 1587.13 527.257 1571.72 530.882C1556.77 534.961 1538.41 537 1516.66 537C1488.56 537 1464.77 532.922 1445.28 524.765C1425.79 516.608 1409.71 505.732 1397.02 492.137C1384.33 478.089 1375.04 461.775 1369.14 443.195C1363.71 424.615 1360.99 405.129 1360.99 384.737Z" fill="#4D4D4D"/>
<path d="M1798.15 537C1774.13 537 1753.28 533.375 1735.61 526.124C1717.93 518.873 1703.2 508.677 1691.42 495.535C1680.09 482.394 1671.48 466.986 1665.59 449.313C1659.7 431.186 1656.75 411.247 1656.75 389.495C1656.75 362.305 1661.06 335.115 1669.67 307.925C1678.73 280.735 1691.87 256.265 1709.09 234.513C1726.32 212.761 1747.39 195.087 1772.32 181.492C1797.24 167.444 1825.79 160.42 1857.97 160.42C1881.54 160.42 1902.16 164.046 1919.83 171.296C1937.96 178.547 1952.69 188.743 1964.02 201.885C1975.8 215.027 1984.64 230.661 1990.53 248.787C1996.42 266.461 1999.37 286.173 1999.37 307.925C1999.37 335.115 1995.06 362.305 1986.45 389.495C1977.84 416.685 1965.15 441.156 1948.38 462.908C1931.61 484.659 1910.54 502.56 1885.16 516.608C1860.24 530.203 1831.23 537 1798.15 537ZM1848.45 246.068C1833.5 246.068 1820.35 250.373 1809.02 258.984C1797.69 267.594 1788.18 278.47 1780.47 291.611C1772.77 304.753 1766.88 319.254 1762.8 335.115C1759.17 350.523 1757.36 365.251 1757.36 379.299C1757.36 402.41 1760.99 420.31 1768.24 432.999C1775.49 445.234 1788.63 451.352 1807.67 451.352C1822.62 451.352 1835.76 447.047 1847.09 438.437C1858.42 429.827 1867.94 418.951 1875.64 405.809C1883.35 392.667 1889.01 378.392 1892.64 362.985C1896.72 347.124 1898.76 332.17 1898.76 318.122C1898.76 295.01 1895.13 277.337 1887.88 265.101C1880.63 252.413 1867.49 246.068 1848.45 246.068Z" fill="#4D4D4D"/>
<path d="M2113.72 527.484H2013.11L2098.09 169.937H2199.38L2113.72 527.484ZM2162.67 126.433C2148.62 126.433 2135.93 122.354 2124.6 114.197C2113.27 105.587 2107.6 92.6721 2107.6 75.4519C2107.6 65.9354 2109.42 57.0987 2113.04 48.9417C2117.12 40.3316 2122.33 33.081 2128.68 27.1898C2135.02 20.8455 2142.27 15.8607 2150.43 12.2354C2159.04 8.61012 2168.1 6.79746 2177.62 6.79746C2191.67 6.79746 2204.36 11.1025 2215.69 19.7126C2227.02 27.8696 2232.69 40.5582 2232.69 57.7785C2232.69 67.2949 2230.65 76.3582 2226.57 84.9684C2222.94 93.1253 2217.96 100.376 2211.61 106.72C2205.27 112.611 2197.79 117.37 2189.18 120.995C2181.02 124.62 2172.18 126.433 2162.67 126.433Z" fill="#4D4D4D"/>
<path d="M2274.29 186.251C2282 183.985 2290.38 181.492 2299.44 178.773C2308.96 175.601 2319.38 172.882 2330.71 170.616C2342.5 167.897 2355.41 165.858 2369.46 164.499C2383.96 162.686 2400.28 161.78 2418.41 161.78C2471.88 161.78 2508.59 177.187 2528.53 208.003C2548.47 238.818 2551.87 280.962 2538.73 334.435L2492.5 527.484H2391.22L2436.08 338.514C2438.8 326.732 2440.84 315.403 2442.2 304.527C2444.01 293.198 2444.01 283.454 2442.2 275.297C2440.39 266.687 2436.08 259.89 2429.28 254.905C2422.94 249.467 2412.97 246.748 2399.37 246.748C2386.23 246.748 2372.86 248.108 2359.27 250.827L2293.32 527.484H2192.04L2274.29 186.251Z" fill="#4D4D4D"/>
<path d="M2664.75 527.484H2564.14L2649.12 169.937H2750.41L2664.75 527.484ZM2713.7 126.433C2699.65 126.433 2686.96 122.354 2675.63 114.197C2664.3 105.587 2658.63 92.6721 2658.63 75.4519C2658.63 65.9354 2660.45 57.0987 2664.07 48.9417C2668.15 40.3316 2673.36 33.081 2679.71 27.1898C2686.05 20.8455 2693.3 15.8607 2701.46 12.2354C2710.07 8.61012 2719.14 6.79746 2728.65 6.79746C2742.7 6.79746 2755.39 11.1025 2766.72 19.7126C2778.05 27.8696 2783.72 40.5582 2783.72 57.7785C2783.72 67.2949 2781.68 76.3582 2777.6 84.9684C2773.97 93.1253 2768.99 100.376 2762.64 106.72C2756.3 112.611 2748.82 117.37 2740.21 120.995C2732.05 124.62 2723.21 126.433 2713.7 126.433Z" fill="#00B3F0"/>
<path d="M2891.26 534.281C2859.09 534.281 2833.71 530.203 2815.13 522.046C2797 513.435 2783.85 501.88 2775.7 487.379C2767.99 472.877 2764.14 456.337 2764.14 437.757C2764.59 418.724 2767.31 398.558 2772.3 377.259L2858.63 16.3139L2964 0L2869.51 391.534C2867.7 399.691 2866.56 407.168 2866.11 413.966C2866.11 420.763 2867.47 426.881 2870.19 432.319C2872.91 437.304 2877.44 441.382 2883.78 444.554C2890.58 447.727 2899.87 449.766 2911.66 450.672L2891.26 534.281Z" fill="#00B3F0"/>
</svg>
